# xmcd CD database file
# Copyright (C) 1997 Ti Kan
#
# Track frame offsets:
#  150
#  22577
#  33967
#  53402
#  76087
#  91662
#  101447
#  116512
#  135650
#  153270
#  169227
#
# Disc length: 2495 seconds
#
# Revision: 1
# Processed by: cddbd v1.4b41PL1 Copyright (c) Steve Scherf et al.
# Submitted via: CDWizzard Release:4.22
#
DISCID=6a09bd0b
DTITLE=Eddie C. Campbell - That's When I Know
DYEAR=1900
DGENRE=
TTITLE0=Sister Taught Me Guitar
TTITLE1=Hey, The Blues Is All Right
TTITLE2=That's When I Know
TTITLE3=Busted
TTITLE4=Sleep
TTITLE5=Early In The Morning
TTITLE6=I Been Thinking
TTITLE7=Son of Sons
TTITLE8=You Make Me Feel All Right
TTITLE9=Running Wild
TTITLE10=Devil's Walk
EXTD=
EXTT0=
EXTT1=
EXTT2=
EXTT3=
EXTT4=
EXTT5=
EXTT6=
EXTT7=
EXTT8=
EXTT9=
EXTT10=
PLAYORDER=
